# xmcd
#
# Track frame offsets:
#  150
#  13125
#  28300
#  43225
#  54125
#  68975
#  82125
#  96225
#  111950
#  123325
#  133875
#  143850
#  161425
#  171913
#  182375
#  193013
#  204675
#  216825
#  229263
#  240175
#
# Disc length: 3382 seconds
#
# Revision: 0
# Processed by: cddbd v1.4PL0 Copyright (c) Steve Scherf et al.
# Submitted via: AltoMP3_Maker 3.0
#
DISCID=250d3414
DTITLE=Kenny Rogers - For The Good Times
DYEAR=1900
DGENRE=
TTITLE0=Ruby
TTITLE1=For The Good Times
TTITLE2=(Conditions) Just Dropped In
TTITLE3=She Even Woke Me Up To Say Goodbye
TTITLE4=Hear The Call
TTITLE5=Sleep Comes Easy
TTITLE6=Sunshine
TTITLE7=My Washington Women
TTITLE8=Aways Leaving, Always Gone
TTITLE9=Good Time Liberator
TTITLE10=Where Does Rosie Go
TTITLE11=Somethings Burning
TTITLE12=Ticket To Nowhere
TTITLE13=Trying Just Has Hard
TTITLE14=We All Got To Help Each Other
TTITLE15=Poem For My Little Lady
TTITLE16=Elvira
TTITLE17=Reuben James
TTITLE18=Homemade Lie
TTITLE19=Shine On Ruby Mountain
EXTD=
EXTT0=
EXTT1=
EXTT2=
EXTT3=
EXTT4=
EXTT5=
EXTT6=
EXTT7=
EXTT8=
EXTT9=
EXTT10=
EXTT11=
EXTT12=
EXTT13=
EXTT14=
EXTT15=
EXTT16=
EXTT17=
EXTT18=
EXTT19=
PLAYORDER=
